<svg fill="none" height="24" width="24" xmlns="http://www.w3.org/2000/svg"><path clip-rule="evenodd" d="M17.303 20.715c-1.545.942-3.36 1.485-5.303 1.485s-3.758-.543-5.303-1.485l.01-.01c1.125-1.126 2.871-1.708 5.293-1.708s4.168.582 5.293 1.707l.01.01zm1.58-1.187a.999.999 0 00-.176-.238c-1.542-1.542-3.795-2.293-6.707-2.293s-5.166.751-6.707 2.293a.999.999 0 00-.176.237A10.173 10.173 0 011.8 12C1.8 6.367 6.367 1.8 12 1.8S22.2 6.367 22.2 12c0 2.98-1.278 5.662-3.317 7.527zM24 12c0 6.627-5.373 12-12 12S0 18.627 0 12 5.373 0 12 0s12 5.373 12 12zM7.5 9.968c0 3.137 1.871 5.83 4.501 5.83 2.63 0 4.499-2.693 4.499-5.83 0-2.97-1.594-4.97-4.499-4.97-2.905 0-4.501 2-4.501 4.97zm7 0c0 2.233-1.192 3.83-2.499 3.83-1.307 0-2.501-1.597-2.501-3.83 0-2.01.841-2.97 2.501-2.97 1.659 0 2.499.96 2.499 2.97z" fill="#000" fill-rule="evenodd"/></svg>